HIERARCHY
ROOT Hips
{
	OFFSET 0.000000 0.000000 0.000000
	CHANNELS 6 Xposition Yposition Zposition Xrotation Yrotation Zrotation
	JOINT LeftUpLeg_virtual
	{
		OFFSET 0.000000 0.000000 0.000000
		CHANNELS 3 Xrotation Yrotation Zrotation
		JOINT LeftUpLeg
		{
			OFFSET 11.394100 -6.187798 -0.413800
			CHANNELS 3 Xrotation Yrotation Zrotation
			JOINT LeftLeg
			{
				OFFSET 0.430247 -32.302673 3.732800
				CHANNELS 3 Xrotation Yrotation Zrotation
				JOINT LeftFoot
				{
					OFFSET -0.430247 -48.264931 -6.423300
					CHANNELS 3 Xrotation Yrotation Zrotation
					JOINT LeftToeBase
					{
						OFFSET 4.230900 -16.068199 23.438400
						CHANNELS 3 Xrotation Yrotation Zrotation
						JOINT LeftToe_End
						{
							OFFSET 4.510700 0.695400 19.974600
							CHANNELS 3 Xrotation Yrotation Zrotation
							End Site
							{
								OFFSET 0 0 0
							}
						}
					}
				}
			}
		}
	}
	JOINT RightUpLeg_virtual
	{
		OFFSET 0.000000 0.000000 0.000000
		CHANNELS 3 Xrotation Yrotation Zrotation
		JOINT RightUpLeg
		{
			OFFSET -11.333700 -6.187798 -0.413800
			CHANNELS 3 Xrotation Yrotation Zrotation
			JOINT RightLeg
			{
				OFFSET -0.430392 -32.302628 3.733000
				CHANNELS 3 Xrotation Yrotation Zrotation
				JOINT RightFoot
				{
					OFFSET 0.430392 -48.264973 -6.423500
					CHANNELS 3 Xrotation Yrotation Zrotation
					JOINT RightToeBase
					{
						OFFSET -4.230900 -16.068199 23.438400
						CHANNELS 3 Xrotation Yrotation Zrotation
						JOINT RightToe_End
						{
							OFFSET -4.510700 0.695400 19.974600
							CHANNELS 3 Xrotation Yrotation Zrotation
							End Site
							{
								OFFSET 0 0 0
							}
						}
					}
				}
			}
		}
	}
	JOINT Spine_virtual
	{
		OFFSET 0.000000 0.000000 0.000000
		CHANNELS 3 Xrotation Yrotation Zrotation
		JOINT Spine
		{
			OFFSET -0.002400 12.777504 0.315300
			CHANNELS 3 Xrotation Yrotation Zrotation
			JOINT Spine1
			{
				OFFSET -0.002067 5.816869 0.032633
				CHANNELS 3 Xrotation Yrotation Zrotation
				JOINT Spine1_split
				{
					OFFSET -0.002067 5.816869 0.032633
					CHANNELS 3 Xrotation Yrotation Zrotation
					JOINT Spine2
					{
						OFFSET -0.002067 5.816869 0.032633
						CHANNELS 3 Xrotation Yrotation Zrotation
						JOINT Neck_virtual
						{
							OFFSET 0.000000 0.000000 0.000000
							CHANNELS 3 Xrotation Yrotation Zrotation
							JOINT Neck
							{
								OFFSET -0.003700 21.199493 -0.826900
								CHANNELS 3 Xrotation Yrotation Zrotation
								JOINT Head
								{
									OFFSET 0.000000 20.442200 4.834800
									CHANNELS 3 Xrotation Yrotation Zrotation
									JOINT HeadTop_End
									{
										OFFSET 0.000000 34.668396 4.968400
										CHANNELS 3 Xrotation Yrotation Zrotation
										End Site
										{
											OFFSET 0 0 0
										}
									}
								}
							}
						}
						JOINT LeftShoulder_virtual
						{
							OFFSET 0.000000 0.000000 0.000000
							CHANNELS 3 Xrotation Yrotation Zrotation
							JOINT LeftShoulder
							{
								OFFSET 3.288150 8.794197 -1.372250
								CHANNELS 3 Xrotation Yrotation Zrotation
								JOINT LeftShoulder_split
								{
									OFFSET 3.288150 8.794197 -1.372250
									CHANNELS 3 Xrotation Yrotation Zrotation
									JOINT LeftArm
									{
										OFFSET 11.953299 -2.279007 -0.146200
										CHANNELS 3 Xrotation Yrotation Zrotation
										JOINT LeftForeArm
										{
											OFFSET 18.448900 0.000000 0.000000
											CHANNELS 3 Xrotation Yrotation Zrotation
											JOINT LeftHand
											{
												OFFSET 29.527798 0.000000 0.000000
												CHANNELS 3 Xrotation Yrotation Zrotation
												End Site
												{
													OFFSET 0 0 0
												}
											}
										}
									}
								}
							}
						}
						JOINT RightShoulder_virtual
						{
							OFFSET 0.000000 0.000000 0.000000
							CHANNELS 3 Xrotation Yrotation Zrotation
							JOINT RightShoulder
							{
								OFFSET -3.249400 8.794197 -1.372250
								CHANNELS 3 Xrotation Yrotation Zrotation
								JOINT RightShoulder_split
								{
									OFFSET -3.249400 8.794197 -1.372250
									CHANNELS 3 Xrotation Yrotation Zrotation
									JOINT RightArm
									{
										OFFSET -11.953299 -2.279007 -0.146200
										CHANNELS 3 Xrotation Yrotation Zrotation
										JOINT RightForeArm
										{
											OFFSET -18.448900 0.000000 0.000000
											CHANNELS 3 Xrotation Yrotation Zrotation
											JOINT RightHand
											{
												OFFSET -29.527802 0.000000 0.000000
												CHANNELS 3 Xrotation Yrotation Zrotation
												End Site
												{
													OFFSET 0 0 0
												}
											}
										}
									}
								}
							}
						}
					}
				}
			}
		}
	}
}
MOTION
Frames: 8
Frame Time: 0.03333333
-5.471368 112.513672 177.980194 0.000000 0.000000 0.000000 21.125498 6.770362 -0.110354 -19.029855 9.552729 12.298214 46.319491 14.219048 1.493314 18.794886 -0.318940 1.356466 7.791184 1.965037 -5.353207 0.000000 0.000000 0.000000 20.233691 11.461517 -0.587892 -67.148102 -16.499924 -11.936989 38.686444 -3.086297 -10.548484 51.038770 3.624283 -2.274959 8.284409 0.414958 0.360180 0.000000 0.000000 0.000000 19.981379 4.437230 1.604216 0.265417 0.033179 1.822195 -3.944427 -0.250229 0.162284 0.513134 -1.619369 0.122298 0.000000 0.000000 0.000000 -1.552423 -0.049931 -0.730325 -10.677391 0.352379 -7.495032 -25.753471 7.448116 2.253490 0.000000 0.000000 0.000000 -4.680365 0.176417 0.100440 10.533875 -4.776966 30.927691 5.040157 6.656086 -0.672158 -50.367519 -16.966572 12.201465 -40.158937 -42.976923 -7.901679 0.000000 0.000000 0.000000 -3.645377 0.284479 0.016252 -3.654301 -18.193044 -38.414411 4.607965 2.461548 3.112352 -100.733713 11.774647 44.003866 -33.020461 55.799391 2.458784 0.000000 0.000000 0.000000 
-5.805509 107.739967 186.683517 0.000000 0.000000 0.000000 17.417761 8.197433 -0.170001 -17.943949 9.529810 13.556607 46.812535 13.822834 0.184368 15.350140 -0.023709 0.418548 8.013475 2.239801 -9.123710 0.000000 0.000000 0.000000 16.944472 13.338477 -0.697568 -69.523587 -16.680461 -12.203828 41.245463 -1.667403 -10.389975 47.759934 1.698687 -3.787146 3.971189 -0.182500 1.441817 0.000000 0.000000 0.000000 16.385583 6.688856 1.108422 1.326595 -0.385131 1.243391 -3.829483 -0.786253 0.450606 0.807125 -0.730492 0.208985 0.000000 0.000000 0.000000 -1.741947 -0.383574 -0.826619 -8.362627 0.380583 -7.013528 -27.327770 6.345452 3.260310 0.000000 0.000000 0.000000 -5.042432 -0.157744 0.055735 10.441878 -4.425591 32.160864 4.460922 7.056029 -1.015865 -48.276887 -13.561872 14.803568 -40.922669 -40.686030 -6.935407 0.000000 0.000000 0.000000 -3.771698 0.071229 0.190859 -4.501305 -18.831296 -40.531900 4.452364 1.962925 3.548332 -97.434281 13.921502 39.440675 -30.239826 51.640233 -4.107954 0.000000 0.000000 0.000000 
-6.278090 104.085098 194.734634 0.000000 0.000000 0.000000 13.205891 9.681274 -0.407169 -18.348367 10.797108 14.068957 46.080609 13.404350 -0.401749 10.067536 -0.045642 0.877460 7.032583 2.448188 -11.548541 0.000000 0.000000 0.000000 13.190106 15.375367 -0.961892 -69.204733 -18.564659 -13.011883 41.739163 -0.860903 -9.781304 45.080130 -0.285948 -5.259087 0.962892 -0.859382 2.698388 0.000000 0.000000 0.000000 12.309201 8.853988 0.407800 2.331363 -0.699766 0.968432 -3.579956 -1.465929 0.742450 1.111060 -0.035438 0.215981 0.000000 0.000000 0.000000 -1.942594 -0.897184 -0.851442 -5.853785 0.470578 -6.147818 -27.321329 5.087331 4.455595 0.000000 0.000000 0.000000 -5.209624 -0.680492 -0.048004 10.529912 -4.034014 33.415160 4.139023 6.852898 -1.384625 -45.341593 -9.086010 16.692453 -41.366785 -39.093981 -6.060865 0.000000 0.000000 0.000000 -3.860309 -0.360635 0.384654 -4.599749 -19.035590 -41.417215 4.088448 1.260455 3.541836 -92.134286 15.447827 34.627198 -30.205866 49.587389 -6.789085 0.000000 0.000000 0.000000 
-6.891351 102.023758 202.316162 0.000000 0.000000 0.000000 9.238016 11.111402 -0.766012 -19.473402 13.072314 13.575984 43.146909 12.465737 0.072531 3.785048 -0.854378 1.839240 4.640465 2.629677 -11.855391 0.000000 0.000000 0.000000 9.432038 17.663474 -1.233107 -66.243983 -21.557639 -13.745563 39.365563 -0.300730 -9.030104 41.964699 -1.863792 -6.712886 0.428889 -1.263682 3.700354 0.000000 0.000000 0.000000 8.007394 10.792492 -0.300543 3.062573 -0.893675 0.948799 -3.309852 -2.166825 0.976043 1.258215 -0.006260 0.161769 0.000000 0.000000 0.000000 -2.137464 -1.500863 -0.813957 -2.875347 0.643997 -4.995259 -25.642970 3.940351 5.722155 0.000000 0.000000 0.000000 -5.247162 -1.303783 -0.151984 10.706860 -3.417633 34.699516 4.003704 6.278368 -1.667562 -42.585420 -4.623981 17.510121 -41.820627 -38.630703 -5.828781 0.000000 0.000000 0.000000 -3.966867 -0.941566 0.567228 -4.025298 -18.915604 -41.052647 3.890337 0.647646 3.177816 -85.906383 15.786186 30.007985 -32.175891 51.488978 -5.810161 0.000000 0.000000 0.000000 
-7.484717 101.574982 209.656799 0.000000 0.000000 0.000000 5.906708 12.521023 -1.067864 -20.751978 15.762082 12.256150 37.936196 10.290318 1.453535 -0.796159 -2.447619 1.720766 0.775061 2.733302 -9.919540 0.000000 0.000000 0.000000 5.912928 19.755960 -1.319517 -61.300791 -24.980749 -13.946031 34.287669 0.093893 -8.320910 38.565147 -2.673707 -8.115922 1.756919 -1.048146 4.030895 0.000000 0.000000 0.000000 4.115488 12.346488 -0.852271 3.260604 -0.978779 1.074027 -3.190274 -2.782493 1.069251 1.416372 0.038033 -0.154051 0.000000 0.000000 0.000000 -2.350181 -2.096539 -0.779387 0.622882 0.966023 -3.766033 -22.455690 2.995024 6.995963 0.000000 0.000000 0.000000 -5.294431 -1.934163 -0.261090 10.873934 -2.526527 36.123907 3.828160 5.533237 -1.713205 -40.908312 -1.073962 17.599383 -42.507785 -39.085491 -6.428935 0.000000 0.000000 0.000000 -4.129241 -1.574710 0.666494 -2.849272 -18.459925 -39.717707 3.721382 -0.119277 2.445921 -80.098926 15.237139 26.209178 -35.681561 55.500031 -1.669931 0.000000 0.000000 0.000000 
-7.911037 102.508652 216.711884 0.000000 0.000000 0.000000 3.244310 13.771843 -1.250535 -22.087872 18.291663 10.536168 31.650963 7.012166 3.118366 -1.471703 -4.299499 0.371146 -3.565739 2.571965 -6.563601 0.000000 0.000000 0.000000 2.726588 21.051111 -1.193335 -55.438412 -28.097247 -13.516745 27.501593 0.395044 -7.813575 35.440714 -2.632645 -8.901781 3.319840 -0.389887 3.512463 0.000000 0.000000 0.000000 0.981218 13.439955 -1.238054 2.839236 -1.002446 1.196070 -3.312017 -3.256112 0.969322 1.148782 0.174925 -0.575866 0.000000 0.000000 0.000000 -2.736441 -2.585139 -0.815055 4.464249 1.420378 -2.669479 -18.193464 2.258833 8.228228 0.000000 0.000000 0.000000 -5.485336 -2.465014 -0.413483 10.978363 -1.420915 37.719436 3.728556 4.923178 -1.296356 -40.675788 0.725131 17.399009 -43.274269 -39.520301 -7.593943 0.000000 0.000000 0.000000 -4.444011 -2.135163 0.607482 -1.305286 -17.669853 -37.959456 3.714893 -0.624662 1.475492 -75.966628 14.781182 23.122951 -39.599828 57.731587 3.874549 0.000000 0.000000 0.000000 
-8.006660 104.181458 223.627670 0.000000 0.000000 0.000000 1.254281 14.782418 -1.369839 -23.555364 20.511702 8.746143 26.191677 3.769648 4.517551 1.482326 -5.597804 -0.797365 -5.881190 2.089470 -3.617157 0.000000 0.000000 0.000000 0.337312 21.788235 -1.034990 -49.375038 -30.323759 -12.553217 20.943843 0.732258 -7.534867 32.519241 -2.027810 -9.074331 3.839165 0.337104 2.323820 0.000000 0.000000 0.000000 -1.460306 13.930739 -1.459681 1.931627 -1.025670 1.193783 -3.648189 -3.584067 0.702367 0.989235 0.181459 -0.908490 0.000000 0.000000 0.000000 -3.356796 -2.953671 -0.938681 8.207095 1.841609 -1.850370 -13.429805 1.512918 9.396698 0.000000 0.000000 0.000000 -5.843020 -2.864181 -0.596594 11.002220 -0.161198 39.521271 3.624886 4.449413 -0.691680 -41.449252 0.437082 17.112935 -43.670044 -38.887433 -8.694881 0.000000 0.000000 0.000000 -4.927214 -2.567004 0.395888 0.289816 -16.565075 -36.464368 3.878653 -0.859937 0.528457 -73.973387 15.294960 20.827142 -41.313301 55.803533 7.545332 0.000000 0.000000 0.000000 
-7.788162 105.711128 230.121353 0.000000 0.000000 0.000000 -0.174259 15.432290 -1.465061 -24.747824 22.447675 6.864123 21.693878 1.477577 5.635730 5.620557 -5.834637 -0.648342 -5.190829 1.645781 -2.085239 0.000000 0.000000 0.000000 -1.348540 21.934029 -0.905809 -43.776117 -31.451341 -11.303819 16.184215 0.999816 -7.424740 29.614577 -1.171827 -9.104802 2.968403 0.937217 0.836883 0.000000 0.000000 0.000000 -3.144173 13.945641 -1.642760 0.779594 -1.119457 1.067849 -4.129070 -3.847079 0.359690 1.060796 0.512782 -0.998444 0.000000 0.000000 0.000000 -4.256469 -3.243275 -1.110116 11.396818 2.176383 -1.390351 -8.859844 0.733968 10.435079 0.000000 0.000000 0.000000 -6.340668 -3.168338 -0.816799 10.939335 1.161559 41.364992 3.634052 3.927556 -0.120880 -42.325856 -1.416334 16.684025 -43.204403 -36.609896 -9.097984 0.000000 0.000000 0.000000 -5.576623 -2.890625 0.092532 1.745622 -15.330930 -35.681482 3.835234 -0.848654 -0.209490 -73.982219 17.034618 19.324538 -40.443585 49.899303 8.642631 0.000000 0.000000 0.000000 
